<?xml version="1.0" encoding="UTF-8" standalone="no"?>
<svg width="140px" height="69px" viewBox="0 0 140 69" version="1.1" xmlns="http://www.w3.org/2000/svg" xmlns:xlink="http://www.w3.org/1999/xlink">
    <!-- Generator: Sketch 39 (31667) - http://www.bohemiancoding.com/sketch -->
    <title>logo</title>
    <desc>Created with Sketch.</desc>
    <defs>
        <linearGradient x1="24.744964%" y1="113.176412%" x2="87.3966727%" y2="12.9523256%" id="linearGradient-1">
            <stop stop-color="#91FFA0" offset="0%"></stop>
            <stop stop-color="#46BE9B" offset="68.69%"></stop>
            <stop stop-color="#3CB59B" offset="75.44%"></stop>
            <stop stop-color="#2DA99B" offset="88.86%"></stop>
            <stop stop-color="#28A59B" offset="100%"></stop>
        </linearGradient>
    </defs>
    <g id="Page-1" stroke="none" stroke-width="1" fill="none" fill-rule="evenodd">
        <g id="Artboard" transform="translate(-810.000000, -126.000000)">
            <g id="logo" transform="translate(810.000000, 126.000000)">
                <g id="Layer_1">
                    <path d="M123.3371,29.5117508 C121.649718,29.5117508 121.939736,28.9057059 118.301318,28.9057059 C115.242938,28.9057059 112.263653,30.3022441 110.444444,31.9359303 C110.444444,26.2443784 115.269303,19.4461358 123.3371,19.4461358 C126.527307,19.4461358 128.372881,22.1074633 128.372881,24.4789433 C128.372881,27.1402708 126.237288,29.5117508 123.3371,29.5117508 L123.3371,29.5117508 Z M129.664783,17.9705483 C129.664783,20.605526 131.404896,20.8690238 131.404896,24.4789433 C131.404896,26.7450242 130.455744,29.5117508 127.608286,31.3298855 C132.354049,31.3298855 139.762712,26.9558224 139.762712,17.9705483 C139.762712,14.8876243 137.178908,12.9377408 134.72693,12.9377408 C132.169492,12.9377408 129.664783,14.9666736 129.664783,17.9705483 L129.664783,17.9705483 Z M127.581921,0.21079822 C124.919021,0.21079822 122.704331,2.29243064 122.546139,4.9274084 L122.546139,5.2699555 L122.546139,5.61250261 C122.467043,8.95892435 121.096045,11.9891488 118.907721,14.2552296 C118.696798,14.4396781 118.512241,14.6241265 118.327684,14.808575 C117.879473,15.2565212 117.483992,15.757167 117.114878,16.2578127 C116.693032,16.8375078 116.323917,17.4699025 115.981168,18.1286469 C117.563089,17.3118038 119.303202,16.7584585 121.148776,16.4949607 C121.333333,16.4686109 121.544256,16.4422612 121.728814,16.4159114 C125.288136,15.9152656 128.372881,13.9653821 130.403013,11.1723057 C131.378531,9.82846701 132.090395,8.27383014 132.485876,6.61379416 C132.538606,6.37664616 132.591337,6.16584794 132.617702,5.92869994 C132.644068,5.71790172 132.670433,5.48075372 132.670433,5.24360573 C132.644068,2.47687909 130.376648,0.21079822 127.581921,0.21079822 L127.581921,0.21079822 Z" id="Shape" fill="url(#linearGradient-1)"></path>
                    <g id="Group" transform="translate(0.000000, 24.241795)" fill="#37474F">
                        <path d="M9.8606403,18.8927905 C12.2335217,15.3355705 15.6610169,13.3593372 19.8794727,13.3066376 L19.8794727,22.1074633 C14.079096,21.6068176 10.3879473,24.2417953 9.8606403,28.536809 L9.8606403,43.4771329 L0.105461394,43.4771329 L0.105461394,12.911391 L9.8606403,12.911391 L9.8606403,18.8927905 L9.8606403,18.8927905 Z" id="Shape"></path>
                        <path d="M31.6120527,5.2699555 C31.6120527,8.30017992 29.4764595,10.4608617 26.4708098,10.4608617 C23.4915254,10.4608617 21.3295669,8.32652969 21.3295669,5.2699555 C21.3295669,2.29243064 23.4651601,0.131748888 26.4708098,0.131748888 C29.4764595,0.131748888 31.6120527,2.26608087 31.6120527,5.2699555 L31.6120527,5.2699555 Z" id="Shape"></path>
                        <rect id="Rectangle-path" x="21.9887006" y="12.911391" width="9.75517891" height="30.5657419"></rect>
                        <path d="M67.3898305,28.6422082 C67.3898305,37.8909801 62.0376648,44.0304782 53.5216573,44.0304782 C49.566855,44.0304782 46.7721281,42.4494916 44.3992467,39.6300654 L44.3992467,43.4771329 L34.3804143,43.4771329 L34.3804143,0 L44.3992467,0 L44.3992467,17.3381536 C46.7721281,14.571427 49.4613936,12.9904403 53.2843691,12.9904403 C61.8794727,12.9904403 67.3898305,19.2353376 67.3898305,28.6422082 L67.3898305,28.6422082 Z M57.5819209,28.3523606 C57.5819209,23.7411495 54.8135593,20.4737771 50.7532957,20.4737771 C46.7984934,20.4737771 44.0564972,23.7411495 44.0564972,28.3523606 C44.0564972,33.0953206 46.8248588,36.2836436 50.7532957,36.2836436 C54.8135593,36.3099934 57.5819209,33.042621 57.5819209,28.3523606 L57.5819209,28.3523606 Z" id="Shape"></path>
                        <path d="M94.9943503,28.4841095 C94.9943503,37.8382805 88.3502825,44.0304782 78.4105461,44.0304782 C68.4444444,44.0304782 61.7740113,37.8382805 61.7740113,28.4841095 C61.7740113,19.1299385 68.4180791,12.9904403 78.4105461,12.9904403 C88.3502825,12.9904403 94.9943503,19.1299385 94.9943503,28.4841095 L94.9943503,28.4841095 Z M71.6082863,28.5895086 C71.6082863,33.3324686 74.3766478,36.4680921 78.4369115,36.4680921 C82.4444444,36.4680921 85.212806,33.3061188 85.212806,28.5895086 C85.212806,23.925598 82.4444444,20.7109251 78.4369115,20.7109251 C74.3502825,20.7109251 71.6082863,23.8992482 71.6082863,28.5895086 L71.6082863,28.5895086 Z" id="Shape"></path>
                        <path d="M127.977401,24.5316429 L127.977401,43.4771329 L118.749529,43.4771329 L118.749529,27.2456699 C118.749529,23.68845 116.640301,21.5014185 113.370998,21.5014185 C109.811676,21.5014185 107.412429,24.0309971 107.148776,27.6409166 L107.148776,43.4771329 L97.1299435,43.4771329 L97.1299435,12.911391 L107.148776,12.911391 L107.148776,18.2867456 C109.258004,14.7295256 112.580038,12.9377408 117.088512,12.8850412 C123.811676,12.8586914 127.977401,17.4435527 127.977401,24.5316429 L127.977401,24.5316429 Z" id="Shape"></path>
                    </g>
                </g>
            </g>
        </g>
    </g>
</svg>