<?xml version="1.0" encoding="utf-8"?>
<!-- Generator: Adobe Illustrator 19.2.1, SVG Export Plug-In . SVG Version: 6.00 Build 0)  -->
<svg version="1.1" id="Layer_1" xmlns="http://www.w3.org/2000/svg" xmlns:xlink="http://www.w3.org/1999/xlink" x="0px" y="0px"
	 viewBox="0 0 774.9 412.6" style="enable-background:new 0 0 774.9 412.6;" xml:space="preserve">
<style type="text/css">
	.st0{fill:url(#SVGID_1_);}
	.st1{fill:#37474F;}
	.st2{fill:#91FFA0;}
	.st3{fill:#46BE9B;}
	.st4{fill:#28A59B;}
	.st5{fill:#FFFFFF;}
	.st6{fill:url(#SVGID_2_);}
	.st7{fill:url(#SVGID_3_);}
	.st8{fill:url(#SVGID_4_);}
</style>
<path class="st5" d="M596.7,148.7c-6.4,0-5.3-2.3-19.1-2.3c-11.6,0-22.9,5.3-29.8,11.5c0-21.6,18.3-47.4,48.9-47.4
	c12.1,0,19.1,10.1,19.1,19.1C615.8,139.7,607.7,148.7,596.7,148.7z M620.7,104.9c0,10,6.6,11,6.6,24.7c0,8.6-3.6,19.1-14.4,26
	c18,0,46.1-16.6,46.1-50.7c0-11.7-9.8-19.1-19.1-19.1C630.3,85.8,620.7,93.5,620.7,104.9z M612.9,37.5c-10.1,0-18.5,7.9-19.1,17.9
	c0,0.4,0,0.9,0,1.3s0,0.9,0,1.3c-0.3,12.7-5.5,24.2-13.8,32.8c-0.8,0.7-1.5,1.4-2.2,2.1c-1.7,1.7-3.2,3.6-4.6,5.5
	c-1.6,2.2-3,4.6-4.3,7.1c6-3.1,12.6-5.2,19.6-6.2c0.7-0.1,1.5-0.2,2.2-0.3c13.5-1.9,25.2-9.3,32.9-19.9c3.7-5.1,6.4-11,7.9-17.3
	c0.2-0.9,0.4-1.7,0.5-2.6c0.1-0.8,0.2-1.7,0.2-2.6C632,46.1,623.4,37.5,612.9,37.5z"/>
<g>
	<path class="st5" d="M165.9,200.4c9-13.5,22-21,38-21.2v33.4c-22-1.9-36,8.1-38,24.4v57h-37V178h37V200.4z"/>
	<path class="st5" d="M248.8,148.6c0,11.5-8.1,19.7-19.5,19.7c-11.3,0-19.5-8.1-19.5-19.7c0-11.3,8.1-19.5,19.5-19.5
		C240.7,129.2,248.8,137.3,248.8,148.6z"/>
	<rect x="211.9" y="178" class="st5" width="37" height="116"/>
	<path class="st5" d="M384.6,237.4c0,35.1-20.5,58.4-52.8,58.4c-15,0-25.8-6-34.8-16.7V294h-38V129h38v65.4
		c9-10.5,19.4-16.5,34-16.5C363.4,178,384.6,201.7,384.6,237.4z M347.4,236.3c0-17.5-10.5-29.9-25.9-29.9c-15,0-25.4,12.4-25.4,29.9
		c0,18,10.5,30.1,25.4,30.1C336.9,266.5,347.4,254.1,347.4,236.3z"/>
	<path class="st5" d="M489.3,236.7c0,35.5-25.2,59-62.9,59c-37.8,0-63.1-23.5-63.1-59c0-35.5,25.2-58.8,63.1-58.8
		C464,178,489.3,201.3,489.3,236.7z M400.5,237.2c0,18,10.5,29.9,25.9,29.9c15.2,0,25.7-12,25.7-29.9c0-17.7-10.5-29.9-25.7-29.9
		C411,207.2,400.5,219.4,400.5,237.2z"/>
	<path class="st5" d="M613.9,221.8V294h-35v-62c0-13.5-8-21.8-20.4-21.8c-13.5,0-22.6,9.6-23.6,23.3V294h-38V178h38v20.1
		c8-13.5,20.6-20.3,37.7-20.5C598.1,177.5,613.9,194.8,613.9,221.8z"/>
</g>
</svg>
